<svg aria-hidden="true" style="position: absolute; width: 0; height: 0; overflow: hidden;" version="1.1" xmlns="http://www.w3.org/2000/svg" xmlns:xlink="http://www.w3.org/1999/xlink">
<defs>
<symbol id="icon-Vector" viewBox="0 0 32 32">
<path fill="#ffd600" style="fill: var(--color1, #ffd600)" d="M31.219 14.737c-0.3 0-1.441 0.421-2.041 0.662-0.060-0.241-0.3-0.421-0.6-0.421s-0.601 0.18-0.601 0.421l-1.141-0.18c-0.18-2.466-1.141-4.631-2.642-6.376l0.66-0.962c0.18 0.12 0.54 0.12 0.72-0.121 0.24-0.241 0.3-0.541 0.12-0.722 0.601-0.241 1.741-0.722 1.921-0.963 0.24-0.301 0.060-0.902-0.36-1.383-0.48-0.421-1.081-0.602-1.381-0.361-0.24 0.18-0.721 1.323-0.961 1.925-0.18-0.12-0.54-0.060-0.72 0.12-0.24 0.241-0.3 0.541-0.12 0.722l-0.961 0.662c-1.713-1.486-3.91-2.455-6.326-2.644l-0.038-0.002-0.18-1.143c0.24-0.060 0.42-0.301 0.42-0.602s-0.18-0.541-0.42-0.602c0.24-0.601 0.66-1.744 0.66-2.045-0.060-0.421-0.6-0.722-1.261-0.722s-1.201 0.301-1.261 0.722c0 0.301 0.42 1.444 0.66 2.045-0.24 0.060-0.42 0.301-0.42 0.602s0.18 0.601 0.42 0.601l-0.18 1.143c-2.462 0.18-4.623 1.143-6.364 2.647l-0.961-0.662c0.12-0.18 0.12-0.541-0.12-0.722-0.24-0.241-0.54-0.301-0.72-0.12-0.24-0.602-0.72-1.684-0.961-1.925-0.3-0.241-0.9-0.060-1.321 0.421-0.48 0.421-0.66 1.023-0.42 1.383 0.18 0.241 1.321 0.722 1.921 0.963-0.12 0.18-0.060 0.541 0.12 0.722 0.24 0.241 0.54 0.301 0.72 0.12l0.66 0.962c-1.484 1.717-2.452 3.918-2.64 6.338l-0.002 0.038-1.141 0.18c-0.060-0.24-0.3-0.421-0.6-0.421s-0.54 0.18-0.6 0.421c-0.601-0.24-1.741-0.662-2.041-0.662-0.42 0.060-0.72 0.601-0.72 1.263s0.3 1.203 0.72 1.263c0.3 0 1.441-0.421 2.041-0.662 0.060 0.241 0.3 0.421 0.6 0.421s0.6-0.18 0.6-0.421l1.141 0.18c0.18 2.466 1.141 4.632 2.642 6.376l-0.6 0.902c-0.18-0.12-0.54-0.12-0.72 0.12-0.24 0.241-0.3 0.541-0.12 0.722-0.601 0.241-1.681 0.722-1.921 0.963-0.24 0.301-0.060 0.902 0.36 1.383 0.48 0.481 1.081 0.662 1.381 0.361 0.24-0.18 0.721-1.323 0.961-1.925 0.18 0.12 0.54 0.060 0.72-0.12 0.24-0.241 0.3-0.541 0.12-0.722l0.961-0.662c1.713 1.486 3.91 2.455 6.326 2.644l0.038 0.002 0.18 1.143c-0.24 0.060-0.42 0.301-0.42 0.602s0.18 0.541 0.42 0.601c-0.24 0.602-0.66 1.744-0.66 2.045 0.060 0.421 0.6 0.722 1.261 0.722s1.201-0.301 1.261-0.722c0-0.301-0.42-1.444-0.66-2.045 0.24-0.060 0.42-0.301 0.42-0.601s-0.18-0.602-0.42-0.602l0.18-1.143c2.462-0.18 4.623-1.143 6.364-2.647l0.961 0.662c-0.12 0.18-0.12 0.541 0.12 0.722 0.24 0.241 0.54 0.301 0.72 0.12 0.24 0.601 0.72 1.744 0.961 1.925 0.3 0.241 0.9 0.060 1.381-0.361 0.48-0.481 0.66-1.083 0.36-1.383-0.18-0.241-1.321-0.722-1.921-0.963 0.12-0.18 0.060-0.541-0.12-0.722-0.24-0.241-0.54-0.301-0.72-0.12l-0.66-0.962c1.484-1.718 2.451-3.918 2.639-6.338l0.002-0.038 1.141-0.18c0.060 0.24 0.3 0.421 0.6 0.421s0.54-0.18 0.6-0.421c0.601 0.24 1.741 0.662 2.041 0.662 0.42-0.060 0.72-0.602 0.72-1.263-0.12-0.602-0.42-1.203-0.781-1.263zM6.604 16.421c-0.24 0-0.42-0.18-0.42-0.421s0.18-0.421 0.42-0.421 0.42 0.18 0.42 0.421c0 0.241-0.18 0.421-0.42 0.421zM22.274 9.083c0.18-0.18 0.42-0.18 0.6 0s0.18 0.421 0 0.602c-0.18 0.18-0.42 0.18-0.6 0-0.056-0.085-0.090-0.189-0.090-0.301s0.034-0.216 0.091-0.303l-0.001 0.002zM15.97 6.256c0.24 0 0.42 0.18 0.42 0.421s-0.18 0.421-0.42 0.421c-0.24 0-0.42-0.18-0.42-0.421s0.18-0.421 0.42-0.421zM9.066 9.083c0.18-0.18 0.42-0.18 0.601 0s0.18 0.421 0 0.602c-0.18 0.18-0.42 0.18-0.601 0-0.056-0.085-0.090-0.189-0.090-0.301s0.034-0.216 0.091-0.303l-0.001 0.002zM10.146 10.827l0.48 0.481c0.12 0.12 0.24 0.12 0.36 0.060l0.66 0.662c-0.18 0.421 0 1.083 0.54 1.624 0.601 0.602 1.441 0.782 1.801 0.421-0.48 0.481-0.78 1.143-0.78 1.865v-0.18h-2.342c-0.060 0-0.12-0.060-0.12-0.18s0.060-0.18 0.12-0.18h2.462v-0.060c0-0.18-0.18-0.361-0.36-0.361h-2.342c-0.12 0-0.42 0.361-0.6 0.662h-0.72c-0.060-0.12-0.18-0.241-0.3-0.241h-0.781c0.12-1.684 0.781-3.308 1.921-4.571zM9.666 22.917c-0.18 0.18-0.42 0.18-0.601 0s-0.18-0.421 0-0.602c0.18-0.18 0.42-0.18 0.601 0s0.18 0.421 0 0.602zM10.146 21.173c-1.141-1.263-1.861-2.947-1.981-4.752h0.78c0.12 0 0.3-0.12 0.3-0.241h0.66c0.18 0.301 0.48 0.722 0.6 0.722h2.342c0.18 0 0.36-0.12 0.36-0.301v-0.12h-2.342c-0.060 0-0.12-0.060-0.12-0.18s0.060-0.18 0.12-0.18h2.462v-0.18c0 0.722 0.3 1.383 0.78 1.865-0.36-0.361-1.201-0.18-1.801 0.421-0.54 0.541-0.72 1.203-0.54 1.624l-0.66 0.662c-0.12-0.060-0.3-0.060-0.36 0.060l-0.6 0.602zM15.97 25.805c-0.24 0-0.42-0.18-0.42-0.421s0.18-0.421 0.42-0.421c0.24 0 0.42 0.18 0.42 0.421s-0.18 0.421-0.42 0.421zM22.874 22.917c-0.18 0.18-0.42 0.18-0.6 0s-0.18-0.421 0-0.602c0.18-0.18 0.42-0.18 0.6 0s0.18 0.421 0 0.602zM21.794 21.173l-0.48-0.481c-0.12-0.12-0.24-0.12-0.36-0.060l-0.66-0.662c0.18-0.421 0-1.083-0.54-1.624-0.6-0.602-1.441-0.782-1.801-0.421s-0.18 1.203 0.42 1.804c0.54 0.541 1.201 0.722 1.621 0.541l0.66 0.662c-0.060 0.12-0.060 0.301 0.060 0.361l0.48 0.481c-1.261 1.143-2.882 1.865-4.683 1.985v-0.782c0-0.12-0.12-0.301-0.24-0.301v-0.722c0.24-0.18 0.66-0.481 0.66-0.602v-2.346c0-0.18-0.18-0.361-0.36-0.361h-0.060v2.466c0 0.060-0.060 0.12-0.18 0.12s-0.18-0.060-0.18-0.12v-2.406h-0.36v2.406c0 0.060-0.060 0.12-0.18 0.12s-0.18-0.060-0.18-0.12v-2.406h-0.12c-0.18 0-0.3 0.18-0.3 0.361v2.346c0 0.12 0.42 0.421 0.72 0.601v0.662c-0.12 0.060-0.24 0.18-0.24 0.301v0.782c-1.801-0.12-3.482-0.842-4.743-1.985l0.48-0.481c0.12-0.12 0.12-0.241 0.060-0.361l0.66-0.662c0.42 0.18 1.081 0 1.621-0.541 0.601-0.602 0.781-1.444 0.42-1.804 0.48 0.481 1.141 0.782 1.861 0.782 1.501 0 2.642-1.203 2.642-2.647 0-1.504-1.201-2.647-2.642-2.647-0.72 0-1.381 0.301-1.861 0.782 0.36-0.361 0.18-1.203-0.42-1.804-0.54-0.541-1.201-0.722-1.621-0.541l-0.66-0.662c0.060-0.12 0.060-0.301-0.060-0.361l-0.48-0.481c1.261-1.143 2.942-1.865 4.743-1.985v0.782c0 0.12 0.12 0.301 0.24 0.301v0.662c-0.3 0.18-0.72 0.481-0.72 0.602v2.346c0 0.18 0.12 0.361 0.3 0.361h0.12v-2.526c0-0.060 0.060-0.12 0.18-0.12s0.18 0.060 0.18 0.12v2.466h0.36v-2.466c0-0.060 0.060-0.12 0.18-0.12s0.18 0.060 0.18 0.12v2.466h0.060c0.18 0 0.36-0.18 0.36-0.361v-2.346c0-0.12-0.36-0.421-0.66-0.602v-0.722c0.12-0.060 0.24-0.18 0.24-0.301v-0.782c1.801 0.12 3.422 0.842 4.683 1.925l-0.48 0.481c-0.12 0.12-0.12 0.241-0.060 0.361l-0.66 0.662c-0.42-0.18-1.081 0-1.621 0.541-0.6 0.602-0.78 1.444-0.42 1.804s1.201 0.18 1.801-0.421c0.54-0.541 0.72-1.203 0.54-1.624l0.66-0.662c0.12 0.060 0.3 0.060 0.36-0.060l0.48-0.481c1.141 1.263 1.861 2.887 1.981 4.692h-0.781c-0.12 0-0.3 0.12-0.3 0.241h-0.72c-0.18-0.241-0.48-0.662-0.6-0.662h-2.342c-0.18 0-0.36 0.18-0.36 0.361v0.060h2.402c0.060 0 0.12 0.060 0.12 0.18s-0.060 0.18-0.12 0.18h-2.401v0.301h2.402c0.060 0 0.12 0.060 0.12 0.18s-0.060 0.18-0.12 0.18h-2.401v0.12c0 0.18 0.18 0.301 0.36 0.301h2.342c0.12 0 0.42-0.421 0.6-0.722h0.66c0.060 0.12 0.18 0.241 0.3 0.241h0.78c-0.060 1.865-0.78 3.489-1.921 4.752zM14.289 16c0-0.902 0.72-1.684 1.681-1.684 0.901 0 1.681 0.722 1.681 1.684 0 0.902-0.72 1.684-1.681 1.684-0.9 0-1.681-0.722-1.681-1.684zM25.336 16.421c-0.24 0-0.42-0.18-0.42-0.421s0.18-0.421 0.42-0.421c0.24 0 0.42 0.18 0.42 0.421s-0.18 0.421-0.42 0.421z"></path>
</symbol>
<symbol id="icon-t" viewBox="0 0 36 32">
<path fill="#fff" style="fill: var(--color2, #fff)" d="M31.876 8.748c0.046 0.187 0.069 0.487 0.069 0.903 0 3.333-0.811 6.551-2.43 9.653-1.668 3.287-4.005 5.902-7.015 7.847-3.287 2.176-7.060 3.264-11.319 3.264-4.075 0-7.801-1.088-11.18-3.264 0.508 0.046 1.088 0.069 1.737 0.069 3.378 0 6.411-1.042 9.097-3.125-1.621 0-3.056-0.462-4.306-1.388-1.152-0.918-2.022-2.145-2.484-3.557l-0.015-0.053c0.462 0.046 0.901 0.069 1.319 0.069 0.647 0 1.296-0.071 1.945-0.208-1.694-0.375-3.131-1.292-4.156-2.557l-0.011-0.014c-1.037-1.212-1.668-2.798-1.668-4.532 0-0.018 0-0.036 0-0.054l-0 0.003v-0.139c1.019 0.603 2.107 0.924 3.264 0.972-0.97-0.698-1.762-1.579-2.34-2.598l-0.021-0.040c-0.568-0.984-0.903-2.165-0.903-3.423 0-0.018 0-0.037 0-0.055l-0 0.003c0-1.296 0.348-2.523 1.042-3.68 3.565 4.468 8.918 7.378 14.959 7.638l0.042 0.001c-0.088-0.501-0.139-1.078-0.139-1.667v-0c0-1.296 0.324-2.5 0.971-3.609 0.63-1.134 1.526-2.053 2.607-2.691l0.033-0.018c1.022-0.611 2.255-0.973 3.571-0.973 0.014 0 0.028 0 0.041 0h-0.002c1.067 0 2.037 0.208 2.916 0.624 0.928 0.418 1.737 0.972 2.432 1.668 1.753-0.342 3.312-0.945 4.722-1.775l-0.070 0.038c-0.555 1.714-1.62 3.058-3.195 4.028 1.553-0.218 2.957-0.631 4.266-1.218l-0.099 0.040c-1.026 1.485-2.245 2.747-3.638 3.789l-0.042 0.030z"></path>
</symbol>
<symbol id="icon-i" viewBox="0 0 32 32">
<path fill="#fff" style="fill: var(--color2, #fff)" d="M16 7.986c-1.435 0-2.779 0.37-4.028 1.111-1.216 0.713-2.202 1.699-2.895 2.878l-0.020 0.038c-0.655 1.116-1.042 2.458-1.042 3.89 0 0.024 0 0.049 0 0.073l-0-0.004c0 1.435 0.347 2.777 1.042 4.027 0.739 1.197 1.719 2.178 2.878 2.896l0.038 0.022c1.149 0.655 2.524 1.042 3.99 1.042 0.014 0 0.027-0 0.041-0h-0.002c1.435 0 2.756-0.347 3.959-1.042 1.216-0.713 2.202-1.699 2.895-2.878l0.020-0.038c0.698-1.142 1.111-2.524 1.111-4.003 0-0.009 0-0.018-0-0.027v0.001c0-1.435-0.37-2.756-1.111-3.959-0.687-1.236-1.68-2.229-2.878-2.896l-0.037-0.019c-1.109-0.697-2.457-1.111-3.903-1.111-0.020 0-0.040 0-0.060 0l0.003-0zM16 21.18c-0.022 0-0.048 0.001-0.073 0.001-1.415 0-2.693-0.586-3.605-1.528l-0.001-0.001c-0.944-0.913-1.529-2.192-1.529-3.607 0-0.026 0-0.052 0.001-0.077l-0 0.004c0-1.435 0.51-2.663 1.529-3.68 0.913-0.944 2.192-1.529 3.607-1.529 0.026 0 0.052 0 0.077 0.001l-0.004-0c1.435 0 2.661 0.51 3.68 1.529 1.019 1.017 1.529 2.245 1.529 3.68s-0.51 2.661-1.529 3.68c-0.913 0.944-2.192 1.529-3.607 1.529-0.026 0-0.052-0-0.077-0.001l0.004 0zM26.208 7.637c-0.044 0.521-0.275 0.981-0.624 1.32l-0 0c-0.293 0.341-0.724 0.555-1.205 0.555-0.016 0-0.032-0-0.049-0.001l0.002 0c-0.508 0-0.948-0.185-1.319-0.555-0.342-0.329-0.555-0.79-0.555-1.301 0-0.007 0-0.014 0-0.021v0.001c0-0.508 0.185-0.948 0.555-1.319 0.372-0.37 0.811-0.555 1.319-0.555 0.51 0 0.949 0.185 1.321 0.555 0.37 0.372 0.555 0.811 0.555 1.319zM31.486 9.513c-0.092-1.342-0.302-2.5-0.626-3.472-0.424-1.177-1.089-2.178-1.94-2.983l-0.003-0.003c-0.809-0.855-1.81-1.519-2.934-1.926l-0.053-0.017c-0.972-0.325-2.13-0.51-3.472-0.556-1.298-0.092-3.449-0.139-6.459-0.139s-5.186 0.046-6.528 0.139c-1.294 0.046-2.43 0.231-3.403 0.556-1.196 0.436-2.217 1.098-3.056 1.943l-0 0c-0.817 0.821-1.456 1.819-1.856 2.931l-0.018 0.056c-0.325 0.972-0.533 2.13-0.626 3.472-0.046 1.298-0.069 3.449-0.069 6.459s0.023 5.186 0.071 6.528c0.091 1.296 0.299 2.43 0.622 3.403 0.43 1.188 1.068 2.206 1.879 3.060l-0.003-0.004c0.842 0.802 1.865 1.421 3.002 1.789l0.056 0.016c0.971 0.372 2.105 0.58 3.401 0.626 1.342 0.092 3.52 0.139 6.528 0.139 3.010 0 5.163-0.046 6.459-0.139 1.342-0.046 2.5-0.231 3.472-0.556 1.168-0.417 2.166-1.057 2.987-1.874l-0 0c0.845-0.839 1.508-1.861 1.925-3.001l0.018-0.057c0.325-0.971 0.51-2.105 0.556-3.401 0.092-1.342 0.139-3.52 0.139-6.528 0-3.010-0.023-5.163-0.071-6.459zM28.153 25.14c-0.556 1.387-1.552 2.382-2.987 2.985-0.74 0.277-1.991 0.462-3.751 0.555-0.971 0.046-2.405 0.071-4.304 0.071h-2.222c-0.144 0.001-0.313 0.001-0.483 0.001-1.344 0-2.682-0.026-4.014-0.078l0.192 0.006c-1.712-0.092-2.964-0.277-3.751-0.555-1.387-0.556-2.382-1.552-2.985-2.987-0.277-0.788-0.462-2.037-0.555-3.751-0.046-1.017-0.071-2.453-0.071-4.304v-2.222c0-1.852 0.025-3.289 0.071-4.306 0.092-1.76 0.277-3.010 0.555-3.751 0.519-1.391 1.596-2.468 2.952-2.975l0.035-0.011c0.786-0.276 2.037-0.462 3.751-0.555 1.017-0.046 2.453-0.069 4.304-0.069h2.222c1.852 0 3.287 0.023 4.306 0.071 1.76 0.092 3.010 0.277 3.751 0.555 1.39 0.519 2.467 1.596 2.974 2.952l0.011 0.035c0.277 0.74 0.462 1.991 0.555 3.749 0.046 0.972 0.071 2.407 0.071 4.306v2.222c0 1.852-0.025 3.287-0.071 4.306-0.092 1.712-0.277 2.962-0.555 3.751z"></path>
</symbol>
<symbol id="icon-f" viewBox="0 0 18 32">
<path fill="#fff" style="fill: var(--color2, #fff)" d="M5.87 31.976v-13.63h-4.584v-5.417h4.584v-4.288c0-2.261 0.634-4.008 1.905-5.237 1.269-1.269 2.956-1.905 5.059-1.905 1.707 0 3.095 0.079 4.166 0.238v4.821h-2.857c-1.071 0-1.806 0.238-2.202 0.715-0.317 0.396-0.477 1.032-0.477 1.905v3.749h5.059l-0.713 5.419h-4.346v13.63h-5.594z"></path>
</symbol>
</defs>
</svg>
